<svg width="38" height="38" viewBox="0 0 38 38" fill="none" xmlns="http://www.w3.org/2000/svg">
<path d="M38 19C38 29.4934 29.4934 38 19 38C8.50659 38 0 29.4934 0 19C0 8.50659 8.50659 0 19 0C29.4934 0 38 8.50659 38 19Z" fill="#FFCACA"/>
<path d="M18.9999 22.7541C16.9276 22.7541 15.2457 21.0723 15.2457 18.9999C15.2457 16.9276 16.9276 15.2457 18.9999 15.2457C21.0723 15.2457 22.7541 16.9276 22.7541 18.9999C22.7541 21.0723 21.0723 22.7541 18.9999 22.7541ZM18.9999 16.7474C17.7585 16.7474 16.7474 17.7585 16.7474 18.9999C16.7474 20.2413 17.7585 21.2525 18.9999 21.2525C20.2413 21.2525 21.2525 20.2413 21.2525 18.9999C21.2525 17.7585 20.2413 16.7474 18.9999 16.7474Z" fill="#E24141"/>
<path d="M22.2136 29.2015C22.0033 29.2015 21.7931 29.1715 21.5829 29.1214C20.9622 28.9513 20.4416 28.5608 20.1112 28.0102L19.9911 27.81C19.4004 26.7888 18.5895 26.7888 17.9988 27.81L17.8887 28.0002C17.5584 28.5608 17.0378 28.9613 16.4171 29.1214C15.7864 29.2916 15.1356 29.2015 14.585 28.8712L12.8631 27.8801C12.2524 27.5297 11.8119 26.959 11.6217 26.2682C11.4415 25.5775 11.5316 24.8667 11.882 24.256C12.1723 23.7454 12.2524 23.2849 12.0822 22.9946C11.912 22.7043 11.4815 22.5341 10.8909 22.5341C9.42925 22.5341 8.23792 21.3427 8.23792 19.8811V18.1191C8.23792 16.6575 9.42925 15.4662 10.8909 15.4662C11.4815 15.4662 11.912 15.296 12.0822 15.0056C12.2524 14.7153 12.1823 14.2548 11.882 13.7442C11.5316 13.1335 11.4415 12.4127 11.6217 11.732C11.8019 11.0412 12.2424 10.4706 12.8631 10.1202L14.595 9.12906C15.7263 8.45831 17.218 8.84874 17.8987 10L18.0189 10.2003C18.6095 11.2214 19.4204 11.2214 20.0111 10.2003L20.1212 10.01C20.802 8.84874 22.2937 8.45831 23.4349 9.13907L25.1569 10.1302C25.7675 10.4806 26.208 11.0512 26.3983 11.742C26.5785 12.4328 26.4884 13.1436 26.138 13.7542C25.8476 14.2648 25.7675 14.7253 25.9377 15.0156C26.1079 15.306 26.5384 15.4762 27.1291 15.4762C28.5907 15.4762 29.782 16.6675 29.782 18.1291V19.8911C29.782 21.3527 28.5907 22.5441 27.1291 22.5441C26.5384 22.5441 26.1079 22.7143 25.9377 23.0046C25.7675 23.2949 25.8376 23.7554 26.138 24.266C26.4884 24.8767 26.5885 25.5975 26.3983 26.2783C26.2181 26.969 25.7776 27.5397 25.1569 27.8901L23.4249 28.8812C23.0445 29.0914 22.634 29.2015 22.2136 29.2015ZM19 25.4974C19.891 25.4974 20.7219 26.058 21.2925 27.0491L21.4027 27.2393C21.5228 27.4496 21.723 27.5997 21.9633 27.6598C22.2036 27.7199 22.4438 27.6898 22.644 27.5697L24.376 26.5686C24.6363 26.4184 24.8365 26.1681 24.9166 25.8678C24.9967 25.5675 24.9566 25.2571 24.8065 24.9968C24.2358 24.0157 24.1658 23.0046 24.6062 22.2337C25.0467 21.4629 25.9578 21.0224 27.099 21.0224C27.7398 21.0224 28.2503 20.5118 28.2503 19.8711V18.1091C28.2503 17.4784 27.7398 16.9578 27.099 16.9578C25.9578 16.9578 25.0467 16.5173 24.6062 15.7465C24.1658 14.9756 24.2358 13.9645 24.8065 12.9834C24.9566 12.7231 24.9967 12.4127 24.9166 12.1124C24.8365 11.8121 24.6463 11.5718 24.386 11.4116L22.6541 10.4205C22.2236 10.1602 21.6529 10.3104 21.3926 10.7509L21.2825 10.9411C20.7119 11.9322 19.881 12.4928 18.99 12.4928C18.099 12.4928 17.268 11.9322 16.6974 10.9411L16.5873 10.7409C16.337 10.3204 15.7764 10.1702 15.3459 10.4205L13.6139 11.4216C13.3536 11.5718 13.1534 11.8221 13.0733 12.1224C12.9932 12.4227 13.0333 12.7331 13.1835 12.9934C13.7541 13.9745 13.8242 14.9856 13.3837 15.7565C12.9432 16.5273 12.0322 16.9678 10.8909 16.9678C10.2502 16.9678 9.7396 17.4784 9.7396 18.1191V19.8811C9.7396 20.5118 10.2502 21.0324 10.8909 21.0324C12.0322 21.0324 12.9432 21.4729 13.3837 22.2437C13.8242 23.0146 13.7541 24.0257 13.1835 25.0068C13.0333 25.2671 12.9932 25.5775 13.0733 25.8778C13.1534 26.1782 13.3436 26.4184 13.6039 26.5786L15.3359 27.5697C15.5461 27.6999 15.7964 27.7299 16.0266 27.6698C16.2669 27.6098 16.4671 27.4496 16.5973 27.2393L16.7074 27.0491C17.278 26.068 18.109 25.4974 19 25.4974Z" fill="#E24141"/>
</svg>
