<svg width="38" height="38" viewBox="0 0 38 38" fill="none" xmlns="http://www.w3.org/2000/svg">
<circle cx="19" cy="19" r="19" fill="#FFF0D5"/>
<path d="M11.8524 26.7741C12.1984 26.7741 12.4789 26.4936 12.4789 26.1476V25.4285C12.4789 25.0825 12.1984 24.802 11.8524 24.802C11.5063 24.802 11.2258 25.0825 11.2258 25.4285V26.1476C11.2258 26.4936 11.5063 26.7741 11.8524 26.7741Z" fill="#E5A327"/>
<path d="M26.2327 26.7741C26.5787 26.7741 26.8593 26.4936 26.8593 26.1476V25.4285C26.8593 25.0825 26.5787 24.802 26.2327 24.802C25.8867 24.802 25.6062 25.0825 25.6062 25.4285V26.1476C25.6062 26.4936 25.8867 26.7741 26.2327 26.7741Z" fill="#E5A327"/>
<path d="M29.109 15.4545H23.5046L19.6692 13.537V12.3935H23.3568C23.6102 12.3935 23.8386 12.2409 23.9356 12.0068C24.0326 11.7727 23.979 11.5032 23.7998 11.324L22.8048 10.3289L23.7998 9.3341C23.979 9.15491 24.0326 8.88542 23.9356 8.65131C23.8386 8.41719 23.6102 8.26453 23.3568 8.26453H19.0427C18.6967 8.26453 18.4161 8.54505 18.4161 8.89106V13.537L14.5807 15.4545H8.97639C8.63037 15.4545 8.34985 15.7351 8.34985 16.0811V29.0236C8.34985 29.3697 8.63037 29.6502 8.97639 29.6502H29.109C29.455 29.6502 29.7355 29.3697 29.7355 29.0236V16.0811C29.7355 15.7351 29.455 15.4545 29.109 15.4545ZM19.6692 9.51759H21.844L21.4758 9.88578C21.3583 10.0033 21.2922 10.1626 21.2922 10.3288C21.2922 10.495 21.3582 10.6543 21.4757 10.7718L21.8443 11.1404H19.6692V9.51759ZM14.102 28.3971H9.60292V19.5839H14.102V28.3971ZM14.102 18.3308H9.60292V16.7076H14.102V18.3308ZM19.8542 28.3971H18.2312V26.1467C18.2312 25.6938 18.5993 25.3357 19.0433 25.3357C19.4827 25.3357 19.8542 25.6912 19.8542 26.1467V28.3971ZM22.7302 28.3971H21.1073V26.1467C21.1073 25.0214 20.1984 24.0827 19.0421 24.0827C17.9026 24.0827 16.9781 25.0051 16.9781 26.1467V28.3971H15.3551V16.4683L19.0427 14.6247L22.7302 16.4683V28.3971ZM28.4824 28.3971H23.9833V19.5839H28.4824V28.3971ZM28.4824 18.3308H23.9833V16.7076H28.4824V18.3308Z" fill="#E5A327"/>
<path d="M11.8524 23.1789C12.1984 23.1789 12.4789 22.8984 12.4789 22.5524V21.8333C12.4789 21.4873 12.1984 21.2068 11.8524 21.2068C11.5063 21.2068 11.2258 21.4873 11.2258 21.8333V22.5524C11.2258 22.8984 11.5063 23.1789 11.8524 23.1789Z" fill="#E5A327"/>
<path d="M26.2327 23.1789C26.5787 23.1789 26.8593 22.8984 26.8593 22.5524V21.8333C26.8593 21.4873 26.5787 21.2068 26.2327 21.2068C25.8867 21.2068 25.6062 21.4873 25.6062 21.8333V22.5524C25.6062 22.8984 25.8867 23.1789 26.2327 23.1789Z" fill="#E5A327"/>
<path d="M20.4808 23.1789C20.8268 23.1789 21.1073 22.8984 21.1073 22.5524V21.8333C21.1073 21.4873 20.8268 21.2068 20.4808 21.2068C20.1348 21.2068 19.8542 21.4873 19.8542 21.8333V22.5524C19.8542 22.8984 20.1348 23.1789 20.4808 23.1789Z" fill="#E5A327"/>
<path d="M20.4808 19.5841C20.8268 19.5841 21.1073 19.3035 21.1073 18.9575V18.2385C21.1073 17.8925 20.8268 17.6119 20.4808 17.6119C20.1348 17.6119 19.8542 17.8925 19.8542 18.2385V18.9575C19.8542 19.3035 20.1348 19.5841 20.4808 19.5841Z" fill="#E5A327"/>
<path d="M17.6046 21.2068C17.2585 21.2068 16.978 21.4873 16.978 21.8333V22.5524C16.978 22.8984 17.2585 23.1789 17.6046 23.1789C17.9506 23.1789 18.2311 22.8984 18.2311 22.5524V21.8333C18.2311 21.4873 17.9506 21.2068 17.6046 21.2068Z" fill="#E5A327"/>
<path d="M17.6046 17.6119C17.2585 17.6119 16.978 17.8925 16.978 18.2385V18.9575C16.978 19.3035 17.2585 19.5841 17.6046 19.5841C17.9506 19.5841 18.2311 19.3035 18.2311 18.9575V18.2385C18.2311 17.8924 17.9506 17.6119 17.6046 17.6119Z" fill="#E5A327"/>
</svg>
