<svg width="38" height="38" viewBox="0 0 38 38" fill="none" xmlns="http://www.w3.org/2000/svg">
<path d="M38 19C38 29.4934 29.4934 38 19 38C8.50659 38 0 29.4934 0 19C0 8.50659 8.50659 0 19 0C29.4934 0 38 8.50659 38 19Z" fill="#C5D3FF"/>
<path d="M29.3672 24.2566L28.1777 23.0671V16.4438C28.1777 16.2002 28.04 15.9775 27.8221 15.8685L18.1765 11.0457C17.9955 10.9552 17.7823 10.9552 17.6012 11.0457L7.95567 15.8685C7.73775 15.9775 7.6001 16.2002 7.6001 16.4438C7.6001 16.6874 7.73775 16.9102 7.95567 17.0192L11.734 18.9083L11.7339 25.2268C11.7339 25.4505 11.8501 25.6581 12.0407 25.7751C13.7962 26.8522 15.8186 27.4215 17.8891 27.4215C19.9597 27.4215 21.9819 26.8522 23.7371 25.7751C23.9277 25.6581 24.0439 25.4505 24.0439 25.2268L24.0438 18.9083L26.8912 17.4846V23.0671L25.7017 24.2566C25.5811 24.3773 25.5133 24.5409 25.5133 24.7115V26.7784C25.5133 27.1336 25.8013 27.4216 26.1565 27.4216H28.9124C29.2677 27.4216 29.5557 27.1336 29.5557 26.7784V24.7115C29.5557 24.5409 29.4879 24.3773 29.3672 24.2566ZM22.7575 24.8593C21.278 25.6949 19.6025 26.135 17.8892 26.135C16.1758 26.135 14.5001 25.6949 13.0204 24.8592V23.1216C14.4344 24.1248 16.12 24.6657 17.8889 24.6657C19.6578 24.6657 21.3435 24.1248 22.7575 23.1216V24.8593ZM13.0204 19.5656L17.5943 21.9218C17.7792 22.017 17.9986 22.017 18.1834 21.9218L22.7574 19.5656C22.7574 20.2951 22.7573 21.0691 22.7572 21.4664C21.4302 22.702 19.7116 23.3793 17.8889 23.3793C16.0662 23.3793 14.3476 22.702 13.0205 21.4664C13.0205 21.0691 13.0204 20.2951 13.0204 19.5656ZM17.8889 20.5475L9.68163 16.4438L17.8889 12.3402L26.0962 16.4438L17.8889 20.5475ZM28.2692 26.1351H26.7998V24.9779L27.5345 24.2432L28.2692 24.9779V26.1351Z" fill="#1947FF"/>
</svg>
